<svg width="353" height="328" viewBox="0 0 353 328" fill="none" xmlns="http://www.w3.org/2000/svg">
<path d="M51.6788 303.11C120.589 335.95 232.309 335.96 301.219 303.11C370.129 270.26 370.119 217.02 301.219 184.18C232.319 151.34 120.589 151.34 51.6788 184.18C-17.2313 217.02 -17.2212 270.27 51.6788 303.11Z" fill="#F5F5F5"/>
<path d="M300.979 278.84C313.67 278.84 323.959 273.938 323.959 267.89C323.959 261.842 313.67 256.94 300.979 256.94C288.287 256.94 277.999 261.842 277.999 267.89C277.999 273.938 288.287 278.84 300.979 278.84Z" fill="#EBEBEB"/>
<path d="M46.4487 269.46L54.5787 264.77C59.1179 261.066 62.5728 256.205 64.5787 250.7C67.0887 243.78 66.7387 238.52 64.9387 235.88C62.7287 232.63 56.9987 233.2 56.7687 240.04C56.2887 253.52 52.3587 262.87 46.4487 269.46Z" fill="#2B6CB0"/>
<path opacity="0.2" d="M46.4487 269.46L54.5787 264.77C59.1179 261.066 62.5728 256.205 64.5787 250.7C67.0887 243.78 66.7387 238.52 64.9387 235.88C62.7287 232.63 56.9987 233.2 56.7687 240.04C56.2887 253.52 52.3587 262.87 46.4487 269.46Z" fill="black"/>
<path d="M46.4487 269.96C46.3429 269.959 46.2401 269.924 46.1554 269.86C46.0706 269.797 46.0081 269.708 45.977 269.607C45.9458 269.506 45.9476 269.397 45.9821 269.297C46.0166 269.197 46.0819 269.111 46.1687 269.05C64.9687 256.05 61.3287 237.92 61.2887 237.74C61.2749 237.674 61.2742 237.607 61.2866 237.541C61.299 237.475 61.3243 237.412 61.3609 237.356C61.3976 237.299 61.445 237.251 61.5004 237.213C61.5558 237.175 61.6181 237.149 61.6837 237.135C61.7494 237.121 61.8171 237.12 61.8831 237.133C61.949 237.145 62.0119 237.17 62.068 237.207C62.1242 237.244 62.1726 237.291 62.2105 237.347C62.2484 237.402 62.2749 237.464 62.2887 237.53C62.2887 237.72 66.1287 256.47 46.7687 269.87C46.6748 269.934 46.5624 269.966 46.4487 269.96V269.96Z" fill="white"/>
<path d="M30.1587 278.87C30.1587 278.87 27.3287 276.57 28.0087 273.45C28.6887 270.33 30.5187 268.09 27.3887 264.07C24.2587 260.05 23.3887 254.69 27.1287 251.79C29.9787 249.54 34.4287 252.72 36.0287 246.79C37.2087 242.45 36.8087 232.84 42.3387 229.64C47.8687 226.44 51.3387 231.26 50.4687 237.78C49.7087 243.61 48.6287 249.22 49.4687 250.78C51.0887 253.78 53.8587 253.37 53.7287 258.85C53.6187 263.95 48.7887 268.17 48.7887 268.17L30.1587 278.87Z" fill="#2B6CB0"/>
<path d="M39.4487 273.98C39.3265 273.979 39.2088 273.934 39.117 273.853C39.0252 273.772 38.9655 273.661 38.9487 273.54C37.5187 261.69 40.9487 241.23 43.7487 235.15C43.7723 235.083 43.8101 235.021 43.8594 234.969C43.9088 234.918 43.9687 234.877 44.035 234.851C44.1014 234.824 44.1726 234.812 44.244 234.816C44.3153 234.819 44.3852 234.837 44.4487 234.87C44.5084 234.897 44.5621 234.935 44.6067 234.983C44.6512 235.031 44.6857 235.088 44.7081 235.149C44.7304 235.211 44.7402 235.276 44.7369 235.342C44.7336 235.407 44.7172 235.471 44.6887 235.53C41.9187 241.53 38.6087 262.05 39.9787 273.38C39.9928 273.511 39.9544 273.643 39.872 273.746C39.7896 273.849 39.6698 273.915 39.5387 273.93L39.4487 273.98Z" fill="white"/>
<path d="M39.1787 264.75C39.1022 264.754 39.0261 264.736 38.9587 264.7C35.4887 263.01 33.2887 256.98 33.1987 256.7C33.1742 256.638 33.1624 256.571 33.1641 256.504C33.1657 256.438 33.1807 256.372 33.2082 256.311C33.2358 256.25 33.2752 256.195 33.3243 256.15C33.3733 256.104 33.431 256.069 33.4939 256.047C33.5567 256.024 33.6235 256.014 33.6903 256.017C33.757 256.021 33.8224 256.038 33.8825 256.067C33.9427 256.096 33.9963 256.137 34.0403 256.188C34.0843 256.238 34.1178 256.296 34.1387 256.36C34.1387 256.42 36.2887 262.26 39.3987 263.77C39.5008 263.819 39.583 263.902 39.6319 264.004C39.6808 264.107 39.6935 264.222 39.6679 264.333C39.6423 264.443 39.58 264.542 39.4911 264.612C39.4022 264.682 39.2921 264.72 39.1787 264.72V264.75Z" fill="white"/>
<path d="M39.1187 268.75C39.0185 268.75 38.9207 268.719 38.8385 268.662C38.7562 268.605 38.6935 268.524 38.6587 268.43C38.609 268.308 38.6094 268.171 38.66 268.049C38.7106 267.928 38.8071 267.831 38.9287 267.78C44.7687 265.44 48.4087 258.49 48.4487 258.41C48.5097 258.292 48.6151 258.203 48.7417 258.163C48.8683 258.122 49.0057 258.134 49.1237 258.195C49.2418 258.256 49.3307 258.361 49.371 258.488C49.4113 258.615 49.3997 258.752 49.3387 258.87C49.1787 259.17 45.4887 266.23 39.3387 268.71C39.2702 268.742 39.1943 268.756 39.1187 268.75V268.75Z" fill="white"/>
<path d="M243.249 214.95C243.249 214.95 238.879 207.87 238.449 200.18C238.019 192.49 239.709 189.29 242.029 188.37C244.349 187.45 244.529 190.28 245.719 191.95C246.909 193.62 249.339 192.67 250.239 187.46C251.139 182.25 254.419 173.46 261.239 171.75C268.739 169.89 264.719 178.69 262.829 182.12C260.939 185.55 259.479 190.23 260.719 191.5C261.959 192.77 263.889 190.42 265.719 192.6C267.949 195.23 261.019 204.7 257.039 206.99L243.249 214.95Z" fill="#2B6CB0"/>
<path d="M249.239 211.98C249.173 211.977 249.109 211.962 249.049 211.934C248.989 211.907 248.935 211.868 248.891 211.82C248.846 211.771 248.812 211.715 248.789 211.653C248.766 211.591 248.756 211.526 248.759 211.46C249.436 199.09 253.294 187.103 259.959 176.66C259.996 176.606 260.045 176.559 260.101 176.524C260.157 176.489 260.22 176.466 260.285 176.455C260.351 176.445 260.417 176.448 260.482 176.464C260.546 176.481 260.606 176.51 260.659 176.55C260.764 176.628 260.834 176.744 260.854 176.873C260.875 177.002 260.844 177.133 260.769 177.24C254.223 187.53 250.435 199.332 249.769 211.51C249.765 211.576 249.748 211.64 249.719 211.699C249.691 211.758 249.651 211.811 249.601 211.855C249.552 211.899 249.495 211.932 249.432 211.954C249.37 211.975 249.304 211.984 249.239 211.98Z" fill="white"/>
<path d="M249.809 206.07C249.725 206.069 249.643 206.049 249.569 206.01C246.769 204.46 245.219 199.86 245.159 199.67C245.137 199.608 245.127 199.542 245.131 199.475C245.135 199.409 245.151 199.345 245.18 199.285C245.209 199.226 245.249 199.173 245.299 199.129C245.348 199.085 245.406 199.051 245.469 199.03C245.595 198.989 245.732 199 245.85 199.06C245.968 199.12 246.058 199.224 246.099 199.35C246.099 199.35 247.599 203.78 250.099 205.13C250.212 205.197 250.295 205.305 250.33 205.432C250.366 205.559 250.351 205.694 250.289 205.81C250.244 205.896 250.174 205.967 250.088 206.013C250.003 206.059 249.905 206.079 249.809 206.07Z" fill="white"/>
<path d="M250.299 203.04C250.188 203.039 250.081 203.001 249.994 202.932C249.907 202.863 249.845 202.768 249.819 202.66C249.802 202.597 249.799 202.531 249.808 202.467C249.817 202.402 249.839 202.34 249.873 202.284C249.906 202.229 249.951 202.18 250.003 202.141C250.056 202.103 250.115 202.075 250.179 202.06C257.399 200.23 259.899 196.45 259.919 196.41C259.954 196.354 260 196.306 260.054 196.268C260.109 196.23 260.17 196.203 260.234 196.189C260.299 196.174 260.365 196.173 260.431 196.184C260.496 196.195 260.558 196.22 260.614 196.255C260.67 196.29 260.718 196.337 260.756 196.391C260.794 196.445 260.821 196.506 260.835 196.57C260.85 196.635 260.851 196.702 260.84 196.767C260.828 196.832 260.804 196.894 260.769 196.95C260.659 197.12 258.059 201.09 250.429 203.03L250.299 203.04Z" fill="white"/>
<path d="M134.449 199.41C134.449 199.41 124.859 197.07 124.359 179.11C123.829 159.73 126.709 137.11 115.359 135.28C104.009 133.45 97.7087 147.28 97.8487 163.43C97.9787 177.57 103.679 208.27 134.409 214.29L134.449 199.41Z" fill="#2B6CB0"/>
<path opacity="0.2" d="M134.449 199.41C134.449 199.41 124.859 197.07 124.359 179.11C123.829 159.73 126.709 137.11 115.359 135.28C104.009 133.45 97.7087 147.28 97.8487 163.43C97.9787 177.57 103.679 208.27 134.409 214.29L134.449 199.41Z" fill="black"/>
<path d="M134.449 212.45H134.359C127.449 211.19 121.819 207.38 117.629 201.14C105.209 182.61 109.119 148.01 110.409 141.97C110.438 141.841 110.515 141.729 110.625 141.656C110.735 141.583 110.869 141.556 110.999 141.58C111.128 141.611 111.241 141.691 111.313 141.802C111.386 141.914 111.413 142.049 111.389 142.18C110.119 148.18 106.229 182.34 118.459 200.58C120.239 203.409 122.588 205.836 125.356 207.709C128.124 209.582 131.251 210.859 134.539 211.46C134.604 211.472 134.666 211.497 134.722 211.533C134.777 211.569 134.825 211.616 134.862 211.671C134.9 211.726 134.925 211.788 134.939 211.853C134.952 211.918 134.952 211.985 134.939 212.05C134.917 212.164 134.857 212.266 134.767 212.34C134.677 212.413 134.564 212.452 134.449 212.45V212.45Z" fill="white"/>
<path d="M134.449 258.54C124.539 259.88 108.449 259.86 99.1587 252.54C89.8687 245.22 91.8087 238.92 95.3787 236.29C98.9487 233.66 102.049 230.66 95.9087 224.82C89.7687 218.98 79.9087 209.6 76.7087 195.53C73.5087 181.46 75.0887 172.66 81.3687 169.73C87.4587 166.89 89.0687 171.41 92.7987 180.73C96.5287 190.05 104.919 182.06 112.099 184.97C119.279 187.88 118.989 193.64 119.439 198.59C119.889 203.54 122.259 204.91 126.329 204.91C130.399 204.91 134.449 207.25 134.449 211.91V258.54Z" fill="#2B6CB0"/>
<path d="M134.449 242.2C134.406 242.209 134.362 242.209 134.319 242.2C133.889 242.08 123.639 239.1 108.709 225.39C92.8087 210.79 85.3087 188.89 85.2287 188.67C85.1904 188.544 85.2023 188.408 85.262 188.291C85.3216 188.173 85.4244 188.083 85.5488 188.04C85.6734 187.999 85.8094 188.008 85.9273 188.066C86.0452 188.124 86.1355 188.226 86.1787 188.35C86.2487 188.57 93.6787 210.23 109.389 224.65C124.109 238.18 134.479 241.21 134.589 241.24C134.652 241.258 134.711 241.289 134.762 241.33C134.813 241.371 134.856 241.422 134.887 241.48C134.919 241.537 134.939 241.6 134.946 241.666C134.953 241.731 134.947 241.797 134.929 241.86C134.896 241.961 134.832 242.049 134.745 242.11C134.659 242.171 134.555 242.203 134.449 242.2Z" fill="white"/>
<path d="M112.879 228.87C112.778 228.872 112.68 228.842 112.597 228.784C112.515 228.727 112.452 228.645 112.419 228.55C109.209 220.31 108.479 202.68 108.419 201.93C108.416 201.798 108.464 201.67 108.554 201.573C108.643 201.476 108.767 201.418 108.899 201.41C109.029 201.412 109.155 201.462 109.251 201.551C109.347 201.639 109.406 201.76 109.419 201.89C109.419 202.07 110.169 220.1 113.319 228.19C113.343 228.252 113.354 228.318 113.353 228.384C113.351 228.45 113.337 228.515 113.31 228.576C113.283 228.636 113.244 228.691 113.196 228.736C113.147 228.781 113.091 228.817 113.029 228.84C112.98 228.857 112.93 228.867 112.879 228.87V228.87Z" fill="white"/>
<path d="M112.799 240.72C111.877 240.727 110.955 240.68 110.039 240.58C109.973 240.572 109.91 240.551 109.852 240.519C109.794 240.487 109.744 240.443 109.703 240.391C109.662 240.339 109.632 240.28 109.614 240.216C109.596 240.152 109.591 240.086 109.599 240.02C109.607 239.954 109.627 239.891 109.66 239.833C109.692 239.776 109.736 239.725 109.788 239.684C109.84 239.643 109.899 239.613 109.963 239.595C110.027 239.577 110.093 239.572 110.159 239.58C110.249 239.58 119.559 240.64 123.829 236.29C123.873 236.237 123.928 236.194 123.99 236.164C124.052 236.134 124.119 236.116 124.188 236.113C124.257 236.11 124.326 236.121 124.39 236.146C124.454 236.171 124.513 236.208 124.562 236.257C124.611 236.305 124.649 236.363 124.675 236.427C124.701 236.491 124.713 236.559 124.71 236.628C124.708 236.697 124.692 236.765 124.662 236.827C124.633 236.889 124.591 236.945 124.539 236.99C121.449 240.18 116.059 240.72 112.799 240.72Z" fill="white"/>
<path d="M105.599 51.36L104.519 45.13L98.9587 48.79C98.4507 47.7901 97.7306 46.913 96.8487 46.22L99.5087 39.02L94.5087 37.91L90.8487 44.91C89.5246 45.1334 88.2407 45.5512 87.0387 46.15L85.4487 40.87L79.5087 45.54L79.8987 51.74C78.6891 53.095 77.5921 54.5465 76.6187 56.08L71.7188 55.83L68.2787 63.54L72.4887 65.34C72.0492 66.9347 71.7712 68.5696 71.6588 70.22L66.3087 75.14L67.3787 81.38L72.9487 77.72C73.4539 78.719 74.1745 79.5934 75.0587 80.28L72.4487 87.49L77.4487 88.59L82.6888 83.49C83.8988 83.3 83.5987 81.02 84.9187 80.37L86.5087 85.63L92.4388 80.97L92.2887 78.53C93.4887 77.19 98.0287 74.24 99.0087 72.7L100.239 70.7L103.679 62.99L102.079 60.09L100.299 56.31L105.599 51.36ZM87.4487 71.87C82.8887 75.45 81.4487 76.24 80.6787 71.45C79.9087 66.66 82.5188 59.38 87.0788 55.79C91.6388 52.2 93.3787 51.95 94.1987 56.73C95.0187 61.51 92.0187 68.33 87.4487 71.87Z" fill="#E0E0E0"/>
<path d="M94.5487 37.91L101.039 41.65L97.3787 48.63L90.8887 44.89L94.5487 37.91Z" fill="#F5F5F5"/>
<path d="M111.009 48.87L105.449 52.53L98.9587 48.79L104.519 45.13L111.009 48.87Z" fill="#F5F5F5"/>
<path d="M110.119 66.7L105.909 64.91L99.4187 61.17L103.629 62.96L110.119 66.7Z" fill="#E0E0E0"/>
<path d="M72.4388 87.49L78.9287 91.22L81.5887 84.02L75.0987 80.28L72.4388 87.49Z" fill="#E0E0E0"/>
<path d="M92.9388 89.37L86.4587 85.63L84.8687 80.37L91.3587 84.11L92.9388 89.37Z" fill="#E0E0E0"/>
<path d="M112.079 55.1L111.009 48.87L105.449 52.53C104.937 51.5296 104.214 50.6526 103.329 49.96L105.989 42.76L101.039 41.65L97.3687 48.65C96.0446 48.8734 94.7607 49.2912 93.5587 49.89L91.9787 44.63L86.0387 49.3L86.4287 55.5C85.2178 56.8646 84.1208 58.3261 83.1487 59.87L78.2387 59.62L74.7988 67.33L79.0087 69.13C78.5732 70.729 78.2952 72.3668 78.1787 74.02L72.8387 78.87L73.9088 85.11L79.4688 81.45C79.9806 82.4475 80.7041 83.3212 81.5887 84.01L78.9287 91.21L83.9287 92.32L87.5887 85.32C88.918 85.0991 90.206 84.6776 91.4088 84.07L92.9887 89.33L98.9287 84.67L98.5387 78.47C99.7484 77.115 100.845 75.6635 101.819 74.13L106.729 74.37L110.169 66.66L105.899 64.87C106.341 63.2722 106.623 61.634 106.739 59.98L112.079 55.1ZM93.9487 75.65C89.3987 79.23 85.0387 78.26 84.2087 73.48C83.3787 68.7 86.4088 61.91 90.9688 58.33C95.5287 54.75 99.8787 55.73 100.709 60.51C101.539 65.29 98.5087 72.07 93.9487 75.65Z" fill="#EBEBEB"/>
<path d="M91.9787 44.61L85.4887 40.87L79.5487 45.54L86.0387 49.28L91.9787 44.61Z" fill="#F5F5F5"/>
<path d="M79.5487 45.54L79.9387 51.74L86.4287 55.48L86.0387 49.28L79.5487 45.54Z" fill="#E0E0E0"/>
<path d="M83.1487 59.82L76.6587 56.08L71.7587 55.84L78.2387 59.58L83.1487 59.82Z" fill="#F5F5F5"/>
<path d="M71.7587 55.84L68.3187 63.54L74.7987 67.28L78.2387 59.58L71.7587 55.84Z" fill="#E0E0E0"/>
<path d="M78.1787 73.96L71.6987 70.22L66.3487 75.14L72.8287 78.88L78.1787 73.96Z" fill="#F5F5F5"/>
<path d="M73.9087 85.12L67.4187 81.38L66.3487 75.14L72.8287 78.88L73.9087 85.12Z" fill="#E0E0E0"/>
<path d="M101.039 41.65L94.5487 37.91L99.5087 39.02L105.989 42.76L101.039 41.65Z" fill="#F5F5F5"/>
<path d="M76.5387 23.08V13.77L69.1287 17.11C68.7363 15.5304 68.0585 14.0359 67.1287 12.7L71.7987 3.29L66.0987 0L60.2787 8.75C58.6568 8.60831 57.0227 8.76765 55.4587 9.22L54.6387 1.13L46.5787 5.79L45.7687 14.79C44.0146 16.3443 42.4016 18.051 40.9487 19.89L35.1287 17.89L29.4287 27.77L34.0887 31.77C33.2277 33.9475 32.5585 36.196 32.0887 38.49L24.6787 43.7V53.02L32.0887 49.68C32.4812 51.2596 33.159 52.7541 34.0887 54.09L29.4487 63.51L35.1487 66.8L40.9687 58.05C42.5906 58.1912 44.2247 58.0319 45.7887 57.58L46.5987 65.67L54.6587 61.01L55.4787 52.01C57.9944 51.0921 60.2229 49.526 61.9387 47.47L66.1187 48.94L71.8187 39.07L68.3187 36.07C69.0785 33.5683 69.3601 30.9459 69.1487 28.34L76.5387 23.08ZM50.6087 46.34C44.4287 49.91 40.6087 47.34 40.6087 40.23C40.6087 33.12 45.7187 24.33 51.9087 20.76C58.0987 17.19 61.8387 19.76 61.8387 26.93C61.8387 34.1 56.7987 42.76 50.6087 46.34Z" fill="#E0E0E0"/>
<path d="M72.5788 3.73L66.0987 0L60.2787 8.75L66.7587 12.49L72.5788 3.73Z" fill="#F5F5F5"/>
<path d="M83.0287 17.51L76.5387 13.77L69.1287 17.11L75.6187 20.85L83.0287 17.51Z" fill="#F5F5F5"/>
<path d="M53.0587 69.41L46.5787 65.67L45.7687 57.58L52.2487 61.32L53.0587 69.41Z" fill="#E0E0E0"/>
<path d="M29.4187 63.51L35.9087 67.25L40.5787 57.84L34.0887 54.1L29.4187 63.51Z" fill="#E0E0E0"/>
<path d="M83.0287 26.87V17.56L75.6187 20.87C75.2304 19.289 74.5522 17.7938 73.6187 16.46L78.2887 7.05L72.5887 3.75L66.7687 12.51C65.1468 12.3634 63.5118 12.5228 61.9487 12.98L61.1287 4.87L53.0687 9.53001L52.2487 18.53C50.4971 20.0869 48.8844 21.7934 47.4287 23.63L41.6087 21.63L35.9087 31.51L40.5787 35.51C39.7131 37.6859 39.0438 39.9349 38.5787 42.23L31.1687 47.44V56.76L38.5787 53.42C38.9669 55.0011 39.645 56.4964 40.5787 57.83L35.9087 67.24L41.6087 70.53L47.4287 61.78C49.0506 61.9217 50.6848 61.7624 52.2487 61.31L53.0687 69.4L61.1287 64.74L61.9387 55.74C63.6929 54.1857 65.3058 52.479 66.7587 50.64L72.5787 52.64L78.2787 42.77L73.6087 38.77C74.4741 36.594 75.1434 34.3451 75.6087 32.05L83.0287 26.87ZM57.0987 50.13C50.9087 53.7 45.8887 50.8 45.8887 43.66C45.8887 36.52 50.8887 27.83 57.0987 24.25C63.3087 20.67 68.2987 23.58 68.2987 30.72C68.2987 37.86 63.2787 46.5 57.0987 50.08V50.13Z" fill="#EBEBEB"/>
<path d="M40.9487 19.91L47.4287 23.65L41.6087 21.62L35.1287 17.87L40.9487 19.91Z" fill="#F0F0F0"/>
<path d="M35.1281 17.8802L29.4265 27.7635L35.9143 31.5063L41.6159 21.6229L35.1281 17.8802Z" fill="#F5F5F5"/>
<path d="M29.4187 27.75L35.9087 31.49L40.5787 35.51L34.0887 31.78L29.4187 27.75Z" fill="#E0E0E0"/>
<path d="M32.0887 38.5L38.5787 42.24L31.1687 47.45L24.6787 43.71L32.0887 38.5Z" fill="#F5F5F5"/>
<path d="M24.6787 43.71L31.1687 47.45V56.77L24.6787 53.03V43.71Z" fill="#E0E0E0"/>
<path d="M61.1287 4.87L54.6387 1.13L46.5787 5.79L53.0587 9.53001L61.1287 4.87Z" fill="#F5F5F5"/>
<path d="M144.329 271.92L238.329 217.64C238.536 217.567 238.715 217.432 238.842 217.253C238.969 217.074 239.037 216.86 239.037 216.64C239.037 216.42 238.969 216.206 238.842 216.027C238.715 215.848 238.536 215.713 238.329 215.64L229.639 210.64C229.1 210.369 228.506 210.228 227.904 210.228C227.301 210.228 226.707 210.369 226.169 210.64L132.139 264.87C131.932 264.943 131.752 265.078 131.625 265.257C131.498 265.436 131.43 265.65 131.43 265.87C131.43 266.09 131.498 266.304 131.625 266.483C131.752 266.662 131.932 266.797 132.139 266.87L140.859 271.87C141.393 272.149 141.985 272.298 142.588 272.307C143.19 272.316 143.787 272.183 144.329 271.92V271.92Z" fill="#E0E0E0"/>
<path d="M235.749 8.06998L150.989 57.01C149.729 57.8323 148.68 58.9398 147.928 60.2428C147.176 61.5458 146.741 63.0077 146.659 64.51V265.58C146.659 268.34 148.599 269.46 150.989 268.08L235.749 219.14C237.01 218.319 238.06 217.212 238.813 215.909C239.565 214.606 239.999 213.143 240.079 211.64V10.57C240.079 7.80998 238.149 6.68998 235.749 8.06998Z" fill="#455A64"/>
<path d="M150.989 57.01L235.749 8.06999C237.889 6.82999 239.659 7.59999 240.019 9.74999C239.819 8.39824 239.335 7.10413 238.599 5.9528C237.863 4.80146 236.892 3.81898 235.749 3.06999L232.229 1.06999C230.887 0.389193 229.403 0.0343933 227.899 0.0343933C226.394 0.0343933 224.911 0.389193 223.569 1.06999L138.799 49.97C137.522 50.7706 136.469 51.8819 135.739 53.2L147.929 60.2C148.659 58.8923 149.713 57.7939 150.989 57.01V57.01Z" fill="#37474F"/>
<path d="M134.449 258.54C134.531 260.042 134.966 261.504 135.718 262.807C136.47 264.11 137.519 265.218 138.779 266.04L142.309 268.04C143.53 268.651 144.868 268.997 146.232 269.056C147.597 269.115 148.959 268.884 150.229 268.38C148.229 269.16 146.639 268.01 146.639 265.54V64.51C146.689 63.0013 147.126 61.5308 147.909 60.24L135.719 53.24C134.947 54.5211 134.51 55.9758 134.449 57.47V258.54Z" fill="#263238"/>
<path d="M153.319 83.8L233.449 37.55C234.889 36.73 236.049 37.4 236.049 39.05V187.87C236.001 188.772 235.74 189.65 235.288 190.432C234.836 191.214 234.206 191.878 233.449 192.37L153.349 238.62C151.909 239.45 150.749 238.78 150.749 237.12V88.3C150.794 87.4009 151.051 86.5252 151.497 85.7434C151.943 84.9617 152.567 84.296 153.319 83.8V83.8Z" fill="white"/>
<path d="M193.369 40.16C192.926 40.4504 192.558 40.8405 192.294 41.2991C192.03 41.7576 191.878 42.2717 191.849 42.8C191.849 43.8 192.529 44.17 193.369 43.68C193.813 43.3914 194.182 43.0017 194.446 42.5428C194.71 42.0839 194.862 41.5689 194.889 41.04C194.889 40.07 194.209 39.68 193.369 40.16Z" fill="#37474F"/>
<path d="M193.369 222.61C191.621 223.754 190.166 225.293 189.124 227.103C188.082 228.914 187.48 230.944 187.369 233.03C187.369 236.86 190.059 238.42 193.369 236.5C195.116 235.356 196.57 233.816 197.612 232.006C198.655 230.196 199.256 228.166 199.369 226.08C199.389 222.25 196.689 220.69 193.369 222.61Z" fill="#37474F"/>
<path d="M178.979 55.64C178.1 56.2234 177.37 57.0052 176.849 57.9224C176.328 58.8395 176.03 59.8664 175.979 60.92C175.979 62.86 177.339 63.65 178.979 62.68C179.867 62.1021 180.606 61.3227 181.136 60.4052C181.666 59.4877 181.972 58.458 182.029 57.4C182.029 55.46 180.669 54.67 178.979 55.64Z" fill="#37474F"/>
<path d="M186.449 54.98C186.449 56.28 187.449 56.77 188.619 56.08L208.619 44.51C209.238 44.1231 209.758 43.5954 210.135 42.9698C210.512 42.3442 210.736 41.6385 210.789 40.91C210.789 39.62 209.789 39.13 208.619 39.82L188.619 51.39C188.001 51.7759 187.482 52.302 187.105 52.9258C186.728 53.5495 186.503 54.2532 186.449 54.98V54.98Z" fill="#37474F"/>
<path d="M141.209 90.24C141.918 90.7022 142.509 91.3252 142.933 92.0584C143.357 92.7916 143.602 93.6144 143.649 94.46C143.649 96.02 142.559 96.65 141.209 95.87C140.501 95.4061 139.913 94.7825 139.491 94.0495C139.069 93.3165 138.825 92.4946 138.779 91.65C138.779 90.1 139.869 89.47 141.209 90.24Z" fill="#37474F"/>
<path d="M141.209 109.02C141.918 109.482 142.509 110.105 142.933 110.838C143.357 111.572 143.602 112.394 143.649 113.24C143.649 114.79 142.559 115.42 141.209 114.65C140.501 114.186 139.913 113.562 139.491 112.829C139.069 112.096 138.825 111.275 138.779 110.43C138.779 108.87 139.869 108.24 141.209 109.02Z" fill="#37474F"/>
<path d="M140.449 90.62C141.158 91.0822 141.749 91.7052 142.173 92.4384C142.597 93.1716 142.842 93.9943 142.889 94.84C142.889 96.39 141.799 97.02 140.449 96.25C139.739 95.7877 139.148 95.1648 138.724 94.4316C138.3 93.6984 138.055 92.8756 138.009 92.03C138.019 90.47 139.109 89.87 140.449 90.62Z" fill="#455A64"/>
<path d="M140.449 109.39C141.16 109.853 141.751 110.478 142.175 111.213C142.599 111.948 142.844 112.773 142.889 113.62C142.889 115.17 141.799 115.8 140.449 115.02C139.737 114.56 139.145 113.937 138.721 113.203C138.297 112.47 138.053 111.646 138.009 110.8C138.019 109.25 139.109 108.62 140.449 109.39Z" fill="#455A64"/>
<path d="M252.269 43.76C252.269 42.1 251.109 41.43 249.669 42.26L240.079 47.79L169.569 88.51C168.811 89.0021 168.181 89.6662 167.729 90.4483C167.277 91.2303 167.017 92.1081 166.969 93.01V241.79C166.969 243.45 168.129 244.12 169.569 243.29L240.109 202.56L249.669 197.04C250.426 196.548 251.056 195.884 251.508 195.102C251.96 194.32 252.221 193.442 252.269 192.54V43.76Z" fill="white"/>
<path d="M253.269 43.76C253.332 43.2585 253.245 42.7496 253.021 42.2969C252.796 41.8442 252.443 41.4679 252.005 41.215C251.567 40.962 251.065 40.8437 250.56 40.8748C250.056 40.906 249.572 41.0852 249.169 41.39L240.019 46.68L169.069 87.68C168.155 88.2566 167.396 89.0467 166.856 89.9822C166.316 90.9178 166.011 91.9706 165.969 93.05V241.79C165.929 242.289 166.025 242.79 166.246 243.239C166.468 243.688 166.808 244.069 167.229 244.34C167.587 244.548 167.995 244.655 168.409 244.65C168.995 244.632 169.567 244.463 170.069 244.16L241.069 203.16L250.199 197.89C251.107 197.308 251.862 196.516 252.402 195.582C252.941 194.648 253.249 193.598 253.299 192.52L253.269 43.76ZM240.039 201.45L239.219 201.93L169.109 242.41C168.991 242.501 168.854 242.564 168.709 242.595C168.564 242.626 168.413 242.624 168.269 242.59C168.139 242.51 168.009 242.23 168.009 241.77V93.01C168.061 92.2839 168.276 91.5791 168.64 90.9485C169.004 90.318 169.506 89.7783 170.109 89.37L240.149 48.87L250.149 43.08C250.267 42.9895 250.403 42.9263 250.548 42.8952C250.694 42.8641 250.844 42.8657 250.989 42.9C251.119 42.98 251.249 43.26 251.249 43.72V192.54C251.197 193.266 250.981 193.971 250.617 194.601C250.254 195.232 249.751 195.772 249.149 196.18L240.019 201.45H240.039Z" fill="#2B6CB0"/>
<path d="M209.619 78.33C218.619 73.15 225.869 77.33 225.869 87.72C225.869 98.11 218.589 110.72 209.619 115.86C200.649 121 193.369 116.86 193.369 106.48C193.369 96.1 200.649 83.52 209.619 78.33Z" fill="#2B6CB0"/>
<path d="M209.619 86.49C212.529 84.81 214.889 86.17 214.889 89.49C214.79 91.319 214.261 93.0988 213.345 94.6852C212.43 96.2715 211.153 97.6196 209.619 98.62C206.709 100.3 204.349 98.94 204.349 95.62C204.448 93.791 204.976 92.0112 205.892 90.4248C206.808 88.8385 208.084 87.4904 209.619 86.49V86.49Z" fill="#2B6CB0"/>
<path d="M219.889 104.41C219.889 98.89 216.019 96.65 211.229 99.41L208.229 101.14C203.449 103.9 199.569 110.62 199.569 116.14V117.63C202.339 118.54 205.819 118.05 209.569 115.86C213.723 113.298 217.236 109.819 219.839 105.69L219.889 104.41Z" fill="#2B6CB0"/>
<path opacity="0.7" d="M209.619 86.49C212.529 84.81 214.889 86.17 214.889 89.49C214.79 91.319 214.261 93.0988 213.345 94.6852C212.43 96.2715 211.153 97.6196 209.619 98.62C206.709 100.3 204.349 98.94 204.349 95.62C204.448 93.791 204.976 92.0112 205.892 90.4248C206.808 88.8385 208.084 87.4904 209.619 86.49V86.49Z" fill="white"/>
<path opacity="0.7" d="M219.889 104.41C219.889 98.89 216.019 96.65 211.229 99.41L208.229 101.14C203.449 103.9 199.569 110.62 199.569 116.14V117.63C202.339 118.54 205.819 118.05 209.569 115.86C213.723 113.298 217.236 109.819 219.839 105.69L219.889 104.41Z" fill="white"/>
<path d="M178.179 138.71L199.089 126.64C200.089 126.09 200.819 126.53 200.819 127.64V128.33C200.787 128.931 200.614 129.516 200.313 130.037C200.013 130.559 199.593 131.002 199.089 131.33L178.179 143.4C177.229 143.95 176.449 143.5 176.449 142.4V141.71C176.481 141.109 176.655 140.525 176.955 140.003C177.256 139.482 177.675 139.039 178.179 138.71V138.71Z" fill="#2B6CB0"/>
<path opacity="0.1" d="M178.179 138.71L199.089 126.64C200.089 126.09 200.819 126.53 200.819 127.64V128.33C200.787 128.931 200.614 129.516 200.313 130.037C200.013 130.559 199.593 131.002 199.089 131.33L178.179 143.4C177.229 143.95 176.449 143.5 176.449 142.4V141.71C176.481 141.109 176.655 140.525 176.955 140.003C177.256 139.482 177.675 139.039 178.179 138.71V138.71Z" fill="black"/>
<path d="M177.319 153.28L240.579 116.76C241.049 116.48 241.439 116.7 241.439 117.26V124.64C241.421 124.94 241.334 125.231 241.185 125.491C241.036 125.751 240.828 125.974 240.579 126.14L177.319 162.66C176.839 162.94 176.449 162.71 176.449 162.16V154.78C176.466 154.479 176.554 154.187 176.705 153.926C176.856 153.666 177.066 153.444 177.319 153.28V153.28Z" fill="#2B6CB0"/>
<path opacity="0.2" d="M177.319 153.28L240.579 116.76C241.049 116.48 241.439 116.7 241.439 117.26V124.64C241.421 124.94 241.334 125.231 241.185 125.491C241.036 125.751 240.828 125.974 240.579 126.14L177.319 162.66C176.839 162.94 176.449 162.71 176.449 162.16V154.78C176.466 154.479 176.554 154.187 176.705 153.926C176.856 153.666 177.066 153.444 177.319 153.28V153.28Z" fill="white"/>
<path d="M178.179 171.54L199.089 159.47C200.089 158.92 200.819 159.37 200.819 160.47V161.16C200.788 161.761 200.615 162.346 200.314 162.868C200.014 163.389 199.594 163.832 199.089 164.16L178.179 176.23C177.229 176.79 176.449 176.34 176.449 175.23V174.54C176.483 173.94 176.657 173.355 176.957 172.834C177.258 172.314 177.676 171.87 178.179 171.54V171.54Z" fill="#2B6CB0"/>
<path opacity="0.1" d="M178.179 171.54L199.089 159.47C200.089 158.92 200.819 159.37 200.819 160.47V161.16C200.788 161.761 200.615 162.346 200.314 162.868C200.014 163.389 199.594 163.832 199.089 164.16L178.179 176.23C177.229 176.79 176.449 176.34 176.449 175.23V174.54C176.483 173.94 176.657 173.355 176.957 172.834C177.258 172.314 177.676 171.87 178.179 171.54V171.54Z" fill="black"/>
<path d="M177.319 186.11L240.579 149.59C241.049 149.31 241.439 149.54 241.439 150.09V157.47C241.421 157.769 241.334 158.061 241.185 158.321C241.036 158.581 240.828 158.803 240.579 158.97L177.319 195.49C176.839 195.77 176.449 195.55 176.449 194.99V187.61C176.466 187.309 176.554 187.017 176.705 186.756C176.856 186.496 177.066 186.274 177.319 186.11V186.11Z" fill="#2B6CB0"/>
<path opacity="0.2" d="M177.319 186.11L240.579 149.59C241.049 149.31 241.439 149.54 241.439 150.09V157.47C241.421 157.769 241.334 158.061 241.185 158.321C241.036 158.581 240.828 158.803 240.579 158.97L177.319 195.49C176.839 195.77 176.449 195.55 176.449 194.99V187.61C176.466 187.309 176.554 187.017 176.705 186.756C176.856 186.496 177.066 186.274 177.319 186.11V186.11Z" fill="white"/>
<path d="M202.549 190.3L227.549 175.89C228.549 175.33 229.289 175.78 229.289 176.89V184.61C229.256 185.212 229.081 185.797 228.779 186.319C228.476 186.84 228.055 187.283 227.549 187.61L202.549 202.03C201.549 202.58 200.819 202.13 200.819 201.03V193.3C200.854 192.7 201.028 192.116 201.328 191.595C201.629 191.074 202.047 190.631 202.549 190.3Z" fill="#2B6CB0"/>
<path opacity="0.1" d="M202.549 190.3L227.549 175.89C228.549 175.33 229.289 175.78 229.289 176.89V184.61C229.256 185.212 229.081 185.797 228.779 186.319C228.476 186.84 228.055 187.283 227.549 187.61L202.549 202.03C201.549 202.58 200.819 202.13 200.819 201.03V193.3C200.854 192.7 201.028 192.116 201.328 191.595C201.629 191.074 202.047 190.631 202.549 190.3Z" fill="black"/>
<path d="M261.749 157.72C261.749 157.72 249.469 140.78 248.749 138.72C248.179 137.2 248.749 134.94 248.929 133.89C249.109 132.84 249.269 130.5 249.449 129.89C249.749 128.75 248.279 128.98 247.449 130.02C246.619 131.06 246.339 133.14 245.909 133.48C245.479 133.82 242.209 129.05 240.499 126.85C238.789 124.65 237.719 123.31 236.669 124.13C235.919 124.72 236.479 126 237.719 127.88C238.443 128.892 239.111 129.944 239.719 131.03C239.909 131.44 238.889 131.47 238.339 132.32C237.909 132.98 238.339 134.05 237.739 134.56C237.369 134.841 237.116 135.248 237.028 135.704C236.939 136.159 237.022 136.631 237.259 137.03C238.372 138.778 239.807 140.298 241.489 141.51C243.329 142.78 244.069 143.23 245.159 144.96C246.249 146.69 256.029 164.36 256.689 165.42C257.349 166.48 258.619 168.64 260.549 168.7C262.479 168.76 278.279 155.16 279.089 154.48C281.689 152.31 282.519 152 282.959 153.95C283.111 154.643 283.224 155.344 283.299 156.05C283.609 158.53 285.299 167.39 285.299 167.39C285.299 167.39 293.299 171.26 299.869 169.39C306.439 167.52 308.659 164.73 308.659 164.73L305.369 159.37C306.259 157.16 310.369 148.2 311.699 141.93L291.099 138.6C290.679 138.51 289.999 138.34 289.099 138.11C287.969 137.81 285.099 136.82 282.929 138.72C275.849 144.89 261.769 157.72 261.769 157.72" fill="#FFA8A7"/>
<path d="M302.589 261.66L298.899 266.79C300.576 267.573 302.408 267.966 304.259 267.94C307.569 268.06 308.479 266.94 308.599 266.72C309.159 265.52 308.289 263.36 308.049 261.5L302.589 261.66Z" fill="#37474F"/>
<path d="M299.109 264.33C299.109 264.33 294.629 264.04 291.539 263.66C288.449 263.28 285.999 264.78 286.719 266.05C287.439 267.32 289.149 268.38 291.809 269.27C294.079 270.04 296.809 270.59 299.169 271.27C301.529 271.95 303.169 272.84 304.539 272.36C306.069 271.83 306.729 271.22 306.599 270.1C306.265 268.507 305.851 266.932 305.359 265.38L299.109 264.33Z" fill="#37474F"/>
<path d="M308.599 256.51C308.599 256.51 308.039 261.17 307.999 262.17C307.959 263.17 303.449 263.49 302.589 261.66L302.449 255.96L308.599 256.51Z" fill="#F28F8F"/>
<path d="M304.059 259.37L305.669 266.45C305.669 266.45 305.819 267.31 302.139 267.86C298.459 268.41 292.679 265.93 291.689 265.43C290.699 264.93 290.589 263.92 294.209 264.12C297.829 264.32 299.109 264.33 299.109 264.33L297.929 261.2L304.059 259.37Z" fill="#FFA8A7"/>
<path d="M311.639 141.87L314.189 141.16C314.189 141.16 319.519 158.03 320.109 159.66C320.699 161.29 321.369 163.01 320.219 165.02C318.849 167.41 311.639 177.02 311.639 177.02L307.059 172.54L312.259 163.02L307.659 153.72L311.639 141.87Z" fill="#F28F8F"/>
<path d="M285.449 119.96C284.851 118.838 284.547 117.582 284.567 116.311C284.586 115.039 284.927 113.794 285.559 112.69C288.099 107.98 293.759 105.69 300.499 106.56C303.619 106.97 307.299 109.56 309.309 113.43C311.529 117.72 311.739 126.36 312.309 129.63L285.449 119.96Z" fill="#37474F"/>
<path d="M285.269 121.81C285.269 121.81 283.669 124.86 283.949 125.14C284.363 125.382 284.817 125.551 285.289 125.64L285.269 121.81Z" fill="#FFA8A7"/>
<path d="M290.129 112.17C288.389 113.3 285.389 115.38 285.259 122.23C285.119 129.23 286.119 131.54 287.159 132.35C287.859 132.9 291.969 132.62 293.729 132.21C295.489 131.8 300.559 129.29 302.389 125.48C304.539 121 304.099 114.48 300.909 112.48C299.285 111.52 297.444 110.988 295.559 110.934C293.673 110.879 291.805 111.305 290.129 112.17V112.17Z" fill="#FFA8A7"/>
<path d="M308.599 164.69C311.679 169.49 314.599 173.69 315.239 179.11C316.559 190.5 312.239 203.52 311.309 211.95C313.058 214.348 314.066 217.206 314.209 220.17C314.209 223.66 308.599 256.51 308.599 256.51C308.599 256.51 304.519 257.75 302.449 255.96L298.599 195.53L300.599 188.17L308.599 164.69Z" fill="#2B6CB0"/>
<path opacity="0.2" d="M308.599 164.69C311.679 169.49 314.599 173.69 315.239 179.11C316.559 190.5 312.239 203.52 311.309 211.95C313.058 214.348 314.066 217.206 314.209 220.17C314.209 223.66 308.599 256.51 308.599 256.51C308.599 256.51 304.519 257.75 302.449 255.96L298.599 195.53L300.599 188.17L308.599 164.69Z" fill="black"/>
<path d="M298.599 195.53L300.599 188.17C304.428 187.162 308.122 185.695 311.599 183.8C311.599 183.8 309.519 187.59 303.539 189.67L300.449 199.12L300.189 220.77L298.599 195.53Z" fill="#2B6CB0"/>
<path opacity="0.3" d="M298.599 195.53L300.599 188.17C304.428 187.162 308.122 185.695 311.599 183.8C311.599 183.8 309.519 187.59 303.539 189.67L300.449 199.12L300.189 220.77L298.599 195.53Z" fill="black"/>
<path d="M308.599 164.69C310.249 167.39 314.189 171.99 313.349 176.42C312.349 181.78 309.449 185.55 300.629 188.17L292.349 218.17C292.349 218.17 296.659 222.17 297.979 226.04C299.299 229.91 304.059 259.39 304.059 259.39C304.059 259.39 302.579 261.8 297.929 261.22C297.929 261.22 281.719 224.22 280.579 221.81C279.195 219.369 278.71 216.521 279.209 213.76C279.719 209.88 285.209 167.41 285.209 167.41L308.599 164.69Z" fill="#2B6CB0"/>
<path opacity="0.2" d="M308.599 164.69C310.249 167.39 314.189 171.99 313.349 176.42C312.349 181.78 309.449 185.55 300.629 188.17L292.349 218.17C292.349 218.17 296.659 222.17 297.979 226.04C299.299 229.91 304.059 259.39 304.059 259.39C304.059 259.39 302.579 261.8 297.929 261.22C297.929 261.22 281.719 224.22 280.579 221.81C279.195 219.369 278.71 216.521 279.209 213.76C279.719 209.88 285.209 167.41 285.209 167.41L308.599 164.69Z" fill="black"/>
<path d="M311.639 141.87L291.039 138.54C290.619 138.45 289.939 138.28 289.039 138.05C289.039 138.05 288.159 150.97 282.869 153.93C282.999 154.55 283.109 155.24 283.209 156.03C283.519 158.51 285.209 167.37 285.209 167.37C285.209 167.37 293.209 171.24 299.779 169.37C306.349 167.5 308.569 164.71 308.569 164.71L305.279 159.35C306.199 157.12 310.339 148.16 311.639 141.87Z" fill="#2B6CB0"/>
<path opacity="0.7" d="M311.639 141.87L291.039 138.54C290.619 138.45 289.939 138.28 289.039 138.05C289.039 138.05 288.159 150.97 282.869 153.93C282.999 154.55 283.109 155.24 283.209 156.03C283.519 158.51 285.209 167.37 285.209 167.37C285.209 167.37 293.209 171.24 299.779 169.37C306.349 167.5 308.569 164.71 308.569 164.71L305.279 159.35C306.199 157.12 310.339 148.16 311.639 141.87Z" fill="white"/>
<path d="M306.209 157.22C303.473 158.863 300.607 160.278 297.639 161.45C300.333 161.396 302.97 160.667 305.309 159.33L306.209 157.22Z" fill="#2B6CB0"/>
<path d="M289.619 112.51C289.619 112.51 288.619 119.01 290.979 122.83C290.979 122.83 291.859 120.24 294.049 120.73C296.239 121.22 296.359 124.11 294.819 125.73C294.427 126.184 293.916 126.519 293.343 126.696C292.77 126.873 292.158 126.885 291.579 126.73C291.579 126.73 291.229 131.43 291.039 135.37C290.849 139.31 289.809 147.9 294.239 151.37C298.669 154.84 309.789 156.06 314.999 148.78C317.899 144.73 314.049 137.57 312.259 129.54C310.609 122.16 309.679 111.22 301.849 109.46C294.019 107.7 289.619 112.51 289.619 112.51Z" fill="#37474F"/>
<path d="M318.349 23.7L316.699 24.7C316.837 24.1129 316.914 23.513 316.929 22.91C316.929 19.56 314.579 18.21 311.679 19.91C310.796 20.4424 310.009 21.1183 309.349 21.91V21.91C309.349 17.41 306.189 15.58 302.289 17.83C300.234 19.1703 298.523 20.9761 297.297 23.101C296.07 25.2259 295.362 27.6101 295.229 30.06C295.229 30.29 295.229 30.51 295.229 30.73C294.224 30.6036 293.207 30.8374 292.359 31.39C290.831 32.3857 289.559 33.7278 288.647 35.3072C287.735 36.8866 287.208 38.6588 287.109 40.48C287.108 40.9034 287.152 41.3257 287.239 41.74L286.359 42.25C283.969 43.63 282.029 46.32 282.029 48.25C282.029 50.18 283.969 50.64 286.359 49.25L318.359 30.8C320.749 29.42 322.689 26.73 322.689 24.8C322.689 22.87 320.739 22.31 318.349 23.7Z" fill="#EBEBEB"/>
</svg>
